# xmcd CD database file
# Generated: Son Sep 28 00:55:01 2003 by KSCD
# 
# Track frame offsets:
#       150
#       13235
#       27233
#       37820
#       49063
#       61754
#       82917
#       96198
#       107630
#       120283
#       134371
#       144740
#       156145
#       168662
#       181100
#       193826
#       206989
#       220253
#
# Disc length: 3134 seconds
#
# Revision: 0
# Processed by: cddbd v1.4PL0 Copyright (c) Steve Scherf et al.
# Submitted via: Kscd 1.3.3
#
DISCID=f70c3c12
DTITLE=Various Artist - The story of Rhythm and Blues [CD2)
DYEAR=1900
DGENRE=
TTITLE0=Jimmy Liggins and his drops of joy - I Can't stop it 
TTITLE1=Wynonie Harris - I want my Fanny Brown 
TTITLE2=Roy Milton - The hucklebuck 
TTITLE3=Charles Brown - Trouble no more 
TTITLE4=Louis Jordan - Barnyard boogie 
TTITLE5=Howlin' Wolf - Blind love 
TTITLE6=Jimmy Witherspoon - Money's getting cheaper 
TTITLE7=Joe Turner - Low down dog 
TTITLE8=Sister Rosetta Tharpe - This train 
TTITLE9=Eddie Vinson and Cootie Williams Orchestra - Juice head baby 
TTITLE10=Sticks McGhee - Drinkin' wine spoo-dee-o-dee 
TTITLE11=Andrew Tibbs - Drinkin' ink splink 
TTITLE12=Memphis Slim and the House Rockets - Rockin' the house 
TTITLE13=Bullmoose Jackson - I want a bow legged woman 
TTITLE14=Ivory Joe Hunter - Blues at midnight 
TTITLE15=Julia Lee - Mama don't allow 
TTITLE16=Jimmy Liggins - Tear drop blues 
TTITLE17=Speckled Red - St. Louis stomp 
EXTD=(c) Digimode Entertainment Ltd. UK 
EXTT0=Liggins 
EXTT1=Harris 
EXTT2=Gibson - Alfred 
EXTT3=Morganfield 
EXTT4=Grey - Jordan 
EXTT5=Burnett 
EXTT6=Williams - Robinson 
EXTT7=Turner 
EXTT8=Rivers 
EXTT9=Williams - Daylie 
EXTT10=McGhee 
EXTT11=Tibbs 
EXTT12=Chatman 
EXTT13=Nix - Glover 
EXTT14=Hunter 
EXTT15=D. Brown 
EXTT16=Liggins 
EXTT17=Perryman 
PLAYORDER=
